<?xml version="1.0" encoding="UTF-8"?>
<svg width="28px" height="21px" viewBox="0 0 28 21" version="1.1" xmlns="http://www.w3.org/2000/svg" xmlns:xlink="http://www.w3.org/1999/xlink">
    <!-- Generator: Sketch 49.1 (51147) - http://www.bohemiancoding.com/sketch -->
    <title>ascent</title>
    <desc>Created with Sketch.</desc>
    <defs></defs>
    <g id="Page-1" stroke="none" stroke-width="1" fill="none" fill-rule="evenodd">
        <g id="ascent" transform="translate(-2.000000, -5.000000)">
            <path d="M3.9555228,16.716202 L11.9940177,10.3848896 L11.9940177,14.2870581 L15,14.2870581 L15,6 L5.98318016,6 L5.98318016,8.76269799 L9.43549506,8.76269799 L2,14.6206122 L3.9555228,16.716202 Z M29.0523493,5.82450832 C28.4695835,5.53430504 27.7700021,5.58394508 27.2344876,5.95179045 L2.7333861,22.9223179 C2.11386931,23.3512587 1.85136219,24.1200428 2.08368099,24.8226402 C2.31468725,25.5239648 2.988018,26 3.74928863,26 L28.2503901,26 C29.2164163,26 30,25.2401256 30,24.3033291 L30,7.33280165 C30,6.69766378 29.6338026,6.11598441 29.0510368,5.82450832 L29.0523493,5.82450832 Z M25.8513964,22.7041902 L8.56267784,22.7041902 L25.8513964,10.7282138 L25.8513964,22.7041902 Z" id="Shape" fill="#000000" fill-rule="nonzero"></path>
            <rect id="Rectangle" x="0" y="0" width="32" height="32"></rect>
        </g>
    </g>
</svg>