<?xml version="1.0" encoding="UTF-8"?>
<svg width="16px" height="12px" viewBox="0 0 16 12" version="1.1" xmlns="http://www.w3.org/2000/svg" xmlns:xlink="http://www.w3.org/1999/xlink">
    <!-- Generator: Sketch 49.1 (51147) - http://www.bohemiancoding.com/sketch -->
    <title>elevation</title>
    <desc>Created with Sketch.</desc>
    <defs></defs>
    <g id="Page-1" stroke="none" stroke-width="1" fill="none" fill-rule="evenodd">
        <g id="elevation" transform="translate(-2.000000, -4.000000)">
            <path d="M3.1174416,10.5290388 L7.71086726,6.79798336 L7.71086726,9.09753928 L9.42857143,9.09753928 L9.42857143,4.21395891 L4.27610295,4.21395891 L4.27610295,5.84202251 L6.24885432,5.84202251 L2,9.29410339 L3.1174416,10.5290388 Z M17.4584853,4.11054131 C17.1254763,3.93952392 16.7257155,3.96877689 16.4197072,4.18554893 L2.41907777,14.1863156 C2.06506818,14.4390913 1.91506411,14.8921374 2.04781771,15.3061795 C2.17982129,15.7194715 2.56458172,16 2.9995935,16 L17.0002229,16 C17.5522379,16 18,15.5522045 18,15.0001484 L18,4.99938166 C18,4.62509361 17.7907443,4.28230876 17.4577353,4.11054131 L17.4584853,4.11054131 Z M15.6293694,14.0577725 L5.75010162,14.0577725 L15.6293694,7.00030502 L15.6293694,14.0577725 Z" id="Shape" fill="#000000" fill-rule="nonzero"></path>
            <rect id="Rectangle" x="0" y="0" width="19" height="19"></rect>
        </g>
    </g>
</svg>